<svg width="42" height="50" viewBox="0 0 42 50" fill="none" xmlns="http://www.w3.org/2000/svg">
<path d="M5.528 15.488C5.528 16.64 5.61333 17.6427 5.784 18.496C5.99733 19.3493 6.232 20.0747 6.488 20.672C6.744 21.2267 6.97867 21.6747 7.192 22.016C7.448 22.3573 7.64 22.6347 7.768 22.848C5.37867 22.848 3.50133 22.2507 2.136 21.056C0.770667 19.8187 0.0880001 17.9413 0.0880001 15.424C0.0880001 13.2907 0.621333 11.2853 1.688 9.408C2.79733 7.53067 4.26933 5.90933 6.104 4.544C7.98133 3.136 10.1573 2.02667 12.632 1.216C15.1493 0.405331 17.816 -3.8147e-06 20.632 -3.8147e-06C23.1493 -3.8147e-06 25.3253 0.319997 27.16 0.959999C29.0373 1.55733 30.5733 2.38933 31.768 3.456C33.0053 4.52267 33.9227 5.73867 34.52 7.104C35.1173 8.46933 35.416 9.87733 35.416 11.328C35.416 12.9493 34.9893 14.5707 34.136 16.192C33.2827 17.7707 32.0453 19.1147 30.424 20.224C33.7093 20.5653 36.3333 21.8667 38.296 24.128C40.3013 26.3893 41.304 29.5467 41.304 33.6C41.304 34.9653 41.1547 36.544 40.856 38.336C40.5573 40.0853 40.0027 41.7707 39.192 43.392C38.424 44.9707 37.336 46.3147 35.928 47.424C34.52 48.5333 32.728 49.088 30.552 49.088C29.6133 49.088 28.7173 48.96 27.864 48.704C27.0107 48.4907 26.2427 48.1707 25.56 47.744C24.92 47.2747 24.408 46.6987 24.024 46.016C23.64 45.2907 23.448 44.48 23.448 43.584C23.448 43.328 23.4693 42.9867 23.512 42.56C23.5547 42.0907 23.6187 41.7067 23.704 41.408C24.3013 42.3467 25.048 43.008 25.944 43.392C26.84 43.7333 27.672 43.904 28.44 43.904C29.5067 43.904 30.3813 43.6053 31.064 43.008C31.7893 42.4107 32.344 41.6427 32.728 40.704C33.112 39.7653 33.368 38.7413 33.496 37.632C33.6667 36.48 33.752 35.3493 33.752 34.24C33.752 30.1867 32.9627 27.264 31.384 25.472C29.848 23.68 27.6933 22.784 24.92 22.784C24.408 22.784 23.768 22.8053 23 22.848C22.232 22.8907 21.4853 22.9547 20.76 23.04V48H13.848V6.976L20.76 6.016V20.48H21.656C22.8507 20.48 23.96 20.2027 24.984 19.648C26.0507 19.0507 26.968 18.2827 27.736 17.344C28.504 16.4053 29.1013 15.3813 29.528 14.272C29.9547 13.12 30.168 11.9893 30.168 10.88C30.168 8.36266 29.3147 6.31466 27.608 4.736C25.9013 3.11466 23.3627 2.304 19.992 2.304C18.1573 2.304 16.3653 2.58133 14.616 3.136C12.8667 3.648 11.3093 4.45867 9.944 5.568C8.62133 6.63467 7.55467 8 6.744 9.664C5.93333 11.328 5.528 13.2693 5.528 15.488Z" fill="url(#paint0_linear_3_6)"/>
<defs>
<linearGradient id="paint0_linear_3_6" x1="-1" y1="24" x2="42" y2="24" gradientUnits="userSpaceOnUse">
<stop stop-color="#00C6FB"/>
<stop offset="1" stop-color="#005BEA"/>
</linearGradient>
</defs>
</svg>
